<?xml version="1.0" encoding="UTF-8" standalone="no"?>
<!DOCTYPE svg PUBLIC "-//W3C//DTD SVG 1.1//EN" "http://www.w3.org/Graphics/SVG/1.1/DTD/svg11.dtd">
<svg width="100%" height="100%" viewBox="0 0 256 256" version="1.1" xmlns="http://www.w3.org/2000/svg" xmlns:xlink="http://www.w3.org/1999/xlink" xml:space="preserve" xmlns:serif="http://www.serif.com/" style="fill-rule:evenodd;clip-rule:evenodd;stroke-linecap:round;stroke-linejoin:round;stroke-miterlimit:1.5;">
    <g transform="matrix(0.920398,0,0,0.920398,10.7758,11.9492)">
        <circle cx="127.363" cy="126.088" r="128.127" style="fill:none;stroke:rgb(255,247,230);stroke-width:18.11px;"/>
    </g>
    <g transform="matrix(1,0,0,1,24.7689,12.3556)">
        <g transform="matrix(-1,0,0,1,198.462,0)">
            <g transform="matrix(-1.35237,-0.258819,0.362367,-0.965926,132.018,189.195)">
                <path d="M95.618,89.753L51.251,89.753" style="fill:none;stroke:rgb(255,247,230);stroke-width:14.97px;"/>
            </g>
            <g transform="matrix(1,0,0,0.784375,0,19.098)">
                <path d="M95.108,153.498L95.108,89.753" style="fill:none;stroke:rgb(255,247,230);stroke-width:18.55px;"/>
            </g>
            <g transform="matrix(0.726945,-1.25911,0.717856,0.925175,-134.559,119.37)">
                <path d="M84.908,193.275L125.195,193.275" style="fill:none;stroke:rgb(255,247,230);stroke-width:15.89px;"/>
            </g>
        </g>
        <g transform="matrix(1,0,0,1,8,0)">
            <g transform="matrix(-1.35237,-0.258819,0.362367,-0.965926,132.018,189.195)">
                <path d="M95.618,89.753L51.251,89.753" style="fill:none;stroke:rgb(255,247,230);stroke-width:14.97px;"/>
            </g>
            <g transform="matrix(1,0,0,0.784375,0,19.098)">
                <path d="M95.108,153.498L95.108,89.753" style="fill:none;stroke:rgb(255,247,230);stroke-width:18.55px;"/>
            </g>
            <g transform="matrix(0.726945,-1.25911,0.717856,0.925175,-134.559,119.37)">
                <path d="M84.908,193.275L125.195,193.275" style="fill:none;stroke:rgb(255,247,230);stroke-width:15.89px;"/>
            </g>
        </g>
        <g transform="matrix(0.900901,0,0,0.900901,-11.724,4.42836)">
            <circle cx="127.6" cy="53.375" r="13.875" style="fill:rgb(255,247,230);stroke:rgb(255,247,230);stroke-width:18.5px;"/>
        </g>
    </g>
</svg>
