<?xml version="1.0" encoding="UTF-8" standalone="no"?>
<!DOCTYPE svg PUBLIC "-//W3C//DTD SVG 1.1//EN" "http://www.w3.org/Graphics/SVG/1.1/DTD/svg11.dtd">
<svg width="100%" height="100%" viewBox="0 0 512 512" version="1.1" xmlns="http://www.w3.org/2000/svg" xmlns:xlink="http://www.w3.org/1999/xlink" xml:space="preserve" xmlns:serif="http://www.serif.com/" style="fill-rule:evenodd;clip-rule:evenodd;stroke-linecap:round;stroke-linejoin:round;">
    <g id="Layer-1" serif:id="Layer 1">
        <g id="background" transform="matrix(0.730675,0.730675,-0.730675,0.730675,-9.53243,-9.59339)">
            <path d="M502.362,-138.706L502.362,138.706C502.362,139.598 501.637,140.323 500.744,140.323L223.333,140.323C222.44,140.323 221.716,139.598 221.716,138.706L221.716,-138.706C221.716,-139.598 222.44,-140.323 223.333,-140.323L500.744,-140.323C501.637,-140.323 502.362,-139.598 502.362,-138.706Z" style="fill:url(#_Linear1);"/>
        </g>
        <g id="frame" transform="matrix(0.707184,-0.70703,-0.707185,-0.707029,0,0)">
            <path d="M161.115,-521.592L161.115,-202.486C161.115,-201.601 160.397,-200.884 159.513,-200.884L-159.593,-200.884C-160.477,-200.884 -161.195,-201.601 -161.195,-202.486L-161.195,-521.592C-161.195,-522.476 -160.477,-523.194 -159.593,-523.194L159.513,-523.194C160.397,-523.194 161.115,-522.476 161.115,-521.592Z" style="fill:none;stroke:url(#_Linear2);stroke-width:41.8px;"/>
        </g>
        <g transform="matrix(1,0,0,1,2.80876,-37.5)">
            <g transform="matrix(1,0,0,1,0,34.015)">
                <path d="M132.59,246.718L297.817,246.718C329.434,246.718 330.454,198.782 297.817,198.782" style="fill:none;stroke:rgb(169,228,234);stroke-width:16px;stroke-miterlimit:1.5;"/>
                <path d="M132.59,272.216L297.817,272.216C319.235,272.216 347.793,255.897 347.793,225.3C347.793,194.702 326.375,171.754 294.247,171.754C262.12,171.754 263.139,198.782 263.139,198.782" style="fill:none;stroke:rgb(169,228,234);stroke-width:16px;stroke-miterlimit:1.5;"/>
            </g>
            <g transform="matrix(1,0,0,-1,0,552.985)">
                <path d="M132.59,246.718L297.817,246.718C329.434,246.718 330.454,198.782 297.817,198.782" style="fill:none;stroke:rgb(169,228,234);stroke-width:16px;stroke-miterlimit:1.5;"/>
                <g transform="matrix(1,0,0,-1,-15.8088,515.485)">
                    <path d="M347.986,256.371C357.106,264.247 363.602,275.592 363.602,290.185C363.602,320.783 342.183,343.731 310.056,343.731C277.928,343.731 278.948,316.703 278.948,316.703" style="fill:none;stroke:rgb(169,228,234);stroke-width:16px;stroke-miterlimit:1.5;"/>
                </g>
            </g>
        </g>
    </g>
    <defs>
        <linearGradient id="_Linear1" x1="0" y1="0" x2="1" y2="0" gradientUnits="userSpaceOnUse" gradientTransform="matrix(-269.825,-274.013,274.013,-269.825,535.809,173.426)"><stop offset="0" style="stop-color:rgb(68,118,187);stop-opacity:1"/><stop offset="1" style="stop-color:rgb(51,117,99);stop-opacity:1"/></linearGradient>
        <linearGradient id="_Linear2" x1="0" y1="0" x2="1" y2="0" gradientUnits="userSpaceOnUse" gradientTransform="matrix(303.47,303.47,-303.47,303.47,-175.949,-536.482)"><stop offset="0" style="stop-color:rgb(117,159,240);stop-opacity:1"/><stop offset="1" style="stop-color:rgb(62,182,150);stop-opacity:1"/></linearGradient>
    </defs>
</svg>
