<?xml version="1.0" encoding="UTF-8" standalone="no"?>
<!DOCTYPE svg PUBLIC "-//W3C//DTD SVG 1.1//EN" "http://www.w3.org/Graphics/SVG/1.1/DTD/svg11.dtd">
<svg width="100%" height="100%" viewBox="0 0 364 362" version="1.1" xmlns="http://www.w3.org/2000/svg" xmlns:xlink="http://www.w3.org/1999/xlink" xml:space="preserve" xmlns:serif="http://www.serif.com/" style="fill-rule:evenodd;clip-rule:evenodd;stroke-linecap:round;stroke-linejoin:round;">
    <g id="Artboard1" transform="matrix(1,0,0,1,-74.0218,-75.1371)">
        <rect x="74.022" y="75.137" width="363.956" height="361.726" style="fill:none;"/>
        <clipPath id="_clip1">
            <rect x="74.022" y="75.137" width="363.956" height="361.726"/>
        </clipPath>
        <g clip-path="url(#_clip1)">
            <g id="Layer-1" serif:id="Layer 1" transform="matrix(0.707107,-0.707107,0.707107,0.707107,-105.687,256.652)">
                <g id="background" transform="matrix(0.730675,0.730675,-0.730675,0.730675,-8.53243,-9.59339)">
                    <path d="M502.362,-138.706L502.362,138.706C502.362,139.598 501.637,140.323 500.744,140.323L223.333,140.323C222.44,140.323 221.716,139.598 221.716,138.706L221.716,-138.706C221.716,-139.598 222.44,-140.323 223.333,-140.323L500.744,-140.323C501.637,-140.323 502.362,-139.598 502.362,-138.706Z" style="fill:url(#_Linear2);"/>
                </g>
                <path id="path13" d="M128.224,361.051C273.319,389.17 311.561,184.462 311.561,184.462C311.561,184.462 366.675,367.8 391.42,346.429C416.165,325.058 255.323,481.401 255.323,481.401L128.224,361.051Z" style="fill:rgb(61,44,40);fill-rule:nonzero;stroke:rgb(61,44,40);stroke-width:8px;"/>
                <path id="path12" d="M426.288,314.935C282.317,356.552 240.701,143.97 240.701,143.97C240.701,143.97 121.475,335.181 87.732,310.436C53.989,285.691 426.288,314.935 426.288,314.935Z" style="fill:rgb(61,44,40);fill-rule:nonzero;stroke:rgb(61,44,40);stroke-width:8px;"/>
                <path id="path11" d="M58.488,290.19C125.974,317.185 219.33,76.484 219.33,76.484C219.33,76.484 236.202,429.662 308.187,406.042C380.172,382.422 58.488,290.19 58.488,290.19Z" style="fill:rgb(61,44,40);fill-rule:nonzero;stroke:rgb(61,44,40);stroke-width:8px;"/>
                <path id="path10" d="M35.993,267.695C215.956,340.805 268.82,122.6 268.82,122.6C268.82,122.6 319.434,356.552 401.543,332.932C483.651,309.312 259.822,478.027 259.822,478.027L35.993,267.695Z" style="fill:rgb(61,44,40);fill-rule:nonzero;stroke:rgb(61,44,40);stroke-width:8px;"/>
                <path id="path21" d="M115.851,348.339C241.826,392.205 303.688,248.234 303.688,248.234C303.688,248.234 354.302,384.331 367.8,369.709C381.297,355.087 255.323,485.56 255.323,485.56L115.851,348.339Z" style="fill:rgb(46,33,28);fill-rule:nonzero;stroke:rgb(46,33,28);stroke-width:8px;"/>
                <path id="path20" d="M29.244,253.858C94.481,270.729 102.354,224.614 102.354,224.614L129.349,359.586L29.244,253.858Z" style="fill:rgb(46,33,28);fill-rule:nonzero;stroke:rgb(46,33,28);stroke-width:8px;"/>
                <path id="path19" d="M443.159,294.35C354.302,316.845 343.055,226.863 343.055,226.863C343.055,226.863 200.209,423.698 134.972,361.836C69.736,299.973 253.073,481.061 253.073,481.061L443.159,294.35Z" style="fill:rgb(46,33,28);fill-rule:nonzero;stroke:rgb(46,33,28);stroke-width:8px;"/>
                <path id="path18" d="M402.668,339.34C259.822,368.584 290.191,173.999 290.191,173.999C290.191,173.999 118.101,340.465 75.36,295.474C32.618,250.484 247.449,477.687 247.449,477.687L402.668,339.34Z" style="fill:rgb(46,33,28);fill-rule:nonzero;stroke:rgb(46,33,28);stroke-width:8px;"/>
                <path id="path17" d="M29.244,249.359C132.723,304.473 160.842,178.498 160.842,178.498C160.842,178.498 282.317,374.208 366.675,358.461C451.033,342.715 259.822,478.812 259.822,478.812L29.244,249.359Z" style="fill:rgb(46,33,28);fill-rule:nonzero;stroke:rgb(46,33,28);stroke-width:8px;"/>
                <path id="path24" d="M172.09,390.295C269.945,413.915 365.55,255.323 365.55,255.323C365.55,255.323 411.666,328.433 421.788,319.434C431.911,310.436 254.198,483.651 254.198,483.651L172.09,390.295Z" style="fill:rgb(31,22,17);fill-rule:nonzero;stroke:rgb(31,22,17);stroke-width:8px;"/>
                <path id="path23" d="M291.315,447.658C271.069,448.783 192.336,276.693 192.336,276.693C192.336,276.693 92.231,314.935 76.484,298.064C60.738,281.192 253.073,484.776 253.073,484.776L291.315,447.658Z" style="fill:rgb(31,22,17);fill-rule:nonzero;stroke:rgb(31,22,17);stroke-width:8px;"/>
                <path id="path22" d="M68.611,305.937C215.956,375.673 263.196,239.576 263.196,239.576C263.196,239.576 341.93,400.418 370.049,367.8C398.168,335.181 256.447,482.526 256.447,482.526L68.611,305.937Z" style="fill:rgb(31,22,17);fill-rule:nonzero;stroke:rgb(31,22,17);stroke-width:8px;"/>
                <path id="path27" d="M328.433,417.289C182.213,430.787 184.462,317.185 184.462,317.185C184.462,317.185 145.095,374.548 124.849,354.302C104.604,334.056 254.198,479.152 254.198,479.152L328.433,417.289Z" style="fill:rgb(20,13,10);fill-rule:nonzero;stroke:rgb(20,13,10);stroke-width:8px;"/>
                <path id="path26" d="M74.235,308.187C116.976,349.803 133.848,283.442 133.848,283.442C133.848,283.442 222.704,471.278 247.449,473.528C272.194,475.777 74.235,308.187 74.235,308.187Z" style="fill:rgb(20,13,10);fill-rule:nonzero;stroke:rgb(20,13,10);stroke-width:8px;"/>
                <path id="path25" d="M61.862,292.44C75.36,308.187 112.477,275.568 112.477,275.568C112.477,275.568 113.602,349.803 134.972,377.922C156.343,406.042 61.862,292.44 61.862,292.44Z" style="fill:rgb(20,13,10);fill-rule:nonzero;stroke:rgb(20,13,10);stroke-width:8px;"/>
                <g id="frame" transform="matrix(0.702038,-0.702038,-0.707262,-0.706952,-0.0499468,-0.108982)">
                    <path d="M161.115,-521.592L161.115,-202.486C161.115,-201.601 160.392,-200.884 159.502,-200.884L-159.581,-200.884C-160.472,-200.884 -161.195,-201.601 -161.195,-202.486L-161.195,-521.592C-161.195,-522.476 -160.472,-523.194 -159.581,-523.194L159.502,-523.194C160.392,-523.194 161.115,-522.476 161.115,-521.592Z" style="fill:none;stroke:url(#_Linear3);stroke-width:41.8px;"/>
                </g>
            </g>
        </g>
    </g>
    <defs>
        <linearGradient id="_Linear2" x1="0" y1="0" x2="1" y2="0" gradientUnits="userSpaceOnUse" gradientTransform="matrix(-284.04,-286.319,286.319,-284.04,469.064,108.96)"><stop offset="0" style="stop-color:rgb(153,66,21);stop-opacity:1"/><stop offset="1" style="stop-color:rgb(137,99,52);stop-opacity:1"/></linearGradient>
        <linearGradient id="_Linear3" x1="0" y1="0" x2="1" y2="0" gradientUnits="userSpaceOnUse" gradientTransform="matrix(350.156,350.549,-353.069,347.634,-175.949,-536.482)"><stop offset="0" style="stop-color:rgb(21,10,5);stop-opacity:1"/><stop offset="1" style="stop-color:rgb(144,69,30);stop-opacity:1"/></linearGradient>
    </defs>
</svg>
