<?xml version="1.0" encoding="UTF-8" standalone="no"?>
<!DOCTYPE svg PUBLIC "-//W3C//DTD SVG 1.1//EN" "http://www.w3.org/Graphics/SVG/1.1/DTD/svg11.dtd">
<svg width="100%" height="100%" viewBox="0 0 512 512" version="1.1" xmlns="http://www.w3.org/2000/svg" xmlns:xlink="http://www.w3.org/1999/xlink" xml:space="preserve" xmlns:serif="http://www.serif.com/" style="fill-rule:evenodd;clip-rule:evenodd;stroke-linecap:round;stroke-linejoin:round;">
    <g id="Layer-1" serif:id="Layer 1">
        <g id="background" transform="matrix(0.730675,0.730675,-0.730675,0.730675,-9.53243,-9.59339)">
            <path d="M502.362,-138.706L502.362,138.706C502.362,139.598 501.637,140.323 500.744,140.323L223.333,140.323C222.44,140.323 221.716,139.598 221.716,138.706L221.716,-138.706C221.716,-139.598 222.44,-140.323 223.333,-140.323L500.744,-140.323C501.637,-140.323 502.362,-139.598 502.362,-138.706Z" style="fill:url(#_Linear1);"/>
        </g>
        <g id="frame" transform="matrix(0.707184,-0.70703,-0.707185,-0.707029,0,0)">
            <path d="M161.115,-521.592L161.115,-202.486C161.115,-201.601 160.397,-200.884 159.513,-200.884L-159.593,-200.884C-160.477,-200.884 -161.195,-201.601 -161.195,-202.486L-161.195,-521.592C-161.195,-522.476 -160.477,-523.194 -159.593,-523.194L159.513,-523.194C160.397,-523.194 161.115,-522.476 161.115,-521.592Z" style="fill:none;stroke:url(#_Linear2);stroke-width:41.8px;"/>
        </g>
        <g transform="matrix(1.31461,0,0,1.31461,-85.7615,-59.2071)">
            <g transform="matrix(1,0,0,1,-20,-9)">
                <circle cx="276.625" cy="294.153" r="9.375" style="fill:rgb(155,102,23);stroke:rgb(133,87,20);stroke-width:2.28px;stroke-miterlimit:1.5;"/>
            </g>
            <path d="M296.75,189.542C308.75,196.542 311.25,188.542 311.25,188.542L299.25,174.542C299.25,174.542 284.75,182.542 296.75,189.542Z" style="fill:rgb(50,50,50);"/>
            <path d="M315.25,171.042C325.75,183.042 309.75,199.542 304.25,200.542C298.75,201.542 310.75,195.542 304.25,185.042C297.75,174.542 305.75,171.542 305.75,171.542C305.75,171.542 304.75,159.042 315.25,171.042Z" style="fill:rgb(255,221,223);"/>
            <path d="M246.25,197.042C262.25,160.542 290.819,148.826 314.25,160.542C316.25,161.542 314.75,168.542 314.75,169.042C314.75,169.542 304.308,187.969 294.25,200.542C292.25,203.042 299.75,241.042 258.25,273.042C211.862,308.811 230.25,233.542 246.25,197.042Z" style="fill:rgb(224,34,42);"/>
            <path d="M231.25,306.209C229.25,328.209 209.25,422.209 205.75,430.209C202.25,438.209 203.75,348.209 205.75,337.709C207.75,327.209 216.25,309.709 216.25,309.709C216.25,309.709 233.25,284.209 231.25,306.209Z" style="fill:rgb(207,31,38);"/>
            <g>
                <clipPath id="_clip3">
                    <path d="M270.25,199.542C289.75,212.042 283.25,244.042 252.75,279.042C222.25,314.042 200.25,346.542 200.25,346.542L210.25,269.042C210.25,269.042 229.832,173.633 270.25,199.542Z"/>
                </clipPath>
                <g clip-path="url(#_clip3)">
                    <path d="M270.25,199.542C289.75,212.042 283.25,244.042 252.75,279.042C222.25,314.042 200.25,346.542 200.25,346.542L210.25,269.042C210.25,269.042 229.832,173.633 270.25,199.542Z" style="fill:rgb(23,114,215);"/>
                    <path d="M212.75,261.542C210.75,283.542 232.25,300.042 255.75,279.042C279.25,258.042 290.25,236.042 290.25,236.042L241.25,187.542C241.25,187.542 214.75,239.542 212.75,261.542Z" style="fill:rgb(36,207,31);"/>
                    <path d="M227.75,222.042C221.25,250.042 256.75,268.042 276.75,242.542C296.75,217.042 307.25,193.042 307.25,193.042L254.25,169.542C254.25,169.542 234.25,194.042 227.75,222.042Z" style="fill:rgb(207,31,38);"/>
                </g>
            </g>
            <g transform="matrix(1,0,0,1,-4,-1)">
                <circle cx="308.875" cy="170.167" r="2.625"/>
            </g>
        </g>
    </g>
    <defs>
        <linearGradient id="_Linear1" x1="0" y1="0" x2="1" y2="0" gradientUnits="userSpaceOnUse" gradientTransform="matrix(-269.825,-274.013,274.013,-269.825,535.809,173.426)"><stop offset="0" style="stop-color:rgb(68,118,187);stop-opacity:1"/><stop offset="1" style="stop-color:rgb(51,117,99);stop-opacity:1"/></linearGradient>
        <linearGradient id="_Linear2" x1="0" y1="0" x2="1" y2="0" gradientUnits="userSpaceOnUse" gradientTransform="matrix(303.47,303.47,-303.47,303.47,-175.949,-536.482)"><stop offset="0" style="stop-color:rgb(117,159,240);stop-opacity:1"/><stop offset="1" style="stop-color:rgb(62,182,150);stop-opacity:1"/></linearGradient>
    </defs>
</svg>
